<svg width="209" height="209" viewBox="0 0 209 209" fill="none" xmlns="http://www.w3.org/2000/svg">
<mask id="mask0_485_4" style="mask-type:luminance" maskUnits="userSpaceOnUse" x="0" y="0" width="209" height="209">
<path d="M208.646 0.623047H0.646484V208.623H208.646V0.623047Z" fill="white"/>
</mask>
<g mask="url(#mask0_485_4)">
<path d="M0.646485 104.334C0.640438 47.0565 47.0668 0.619561 104.344 0.612305C161.622 0.606259 208.06 47.0323 208.066 104.309C208.073 161.586 161.646 208.025 104.368 208.031H104.356C47.0849 208.038 0.652531 161.617 0.646485 104.346V104.334Z" fill="#5865F2"/>
</g>
<mask id="mask1_485_4" style="mask-type:luminance" maskUnits="userSpaceOnUse" x="0" y="0" width="209" height="209">
<path d="M208.646 0.623047H0.646484V208.623H208.646V0.623047Z" fill="white"/>
</mask>
<g mask="url(#mask1_485_4)">
<path d="M151.072 62.1769C142.289 58.133 133.01 55.2658 123.477 53.6514C122.268 55.7676 120.901 58.6095 119.946 60.9071C109.806 59.3955 99.5012 59.3955 89.3612 60.9071C88.2777 58.4269 87.0672 56.0059 85.7333 53.6514C76.1871 55.2658 66.8984 58.1451 58.1128 62.2132C40.6989 88.1767 35.9705 113.524 38.3287 138.483C48.5509 146.08 60.0054 151.861 72.1891 155.571C74.9294 151.857 77.3565 147.921 79.4449 143.806C75.4869 142.327 71.6655 140.502 68.0291 138.35C68.9808 137.633 69.8987 136.913 70.7863 136.186C92.2212 146.325 117.071 146.325 138.507 136.186C139.414 136.936 140.357 137.662 141.301 138.364C137.657 140.525 133.828 142.358 129.86 143.841C131.947 147.951 134.373 151.879 137.115 155.583C149.305 151.884 160.762 146.103 170.976 138.496C173.734 109.557 166.212 84.4412 151.072 62.1769ZM82.4198 123.15C75.817 123.15 70.3993 117.103 70.3993 109.677C70.3993 102.253 75.6961 96.1581 82.4198 96.1581C89.1435 96.1581 94.5129 102.205 94.4524 109.642C94.3919 117.078 89.1435 123.15 82.4198 123.15ZM126.862 123.15C120.259 123.15 114.841 117.103 114.841 109.677C114.841 102.253 120.138 96.1581 126.862 96.1581C133.585 96.1581 138.955 102.205 138.881 109.642C138.81 117.078 133.585 123.15 126.862 123.15Z" fill="white"/>
</g>
</svg>
