<?xml version="1.0" encoding="utf-8"?>
<!-- Generator: Adobe Illustrator 16.0.0, SVG Export Plug-In . SVG Version: 6.00 Build 0)  -->
<!DOCTYPE svg PUBLIC "-//W3C//DTD SVG 1.1//EN" "http://www.w3.org/Graphics/SVG/1.1/DTD/svg11.dtd">
<svg version="1.1" id="Layer_1" xmlns="http://www.w3.org/2000/svg" xmlns:xlink="http://www.w3.org/1999/xlink" x="0px" y="0px"
	 width="140px" height="1592px" viewBox="0 0 140 1592" enable-background="new 0 0 140 1592" xml:space="preserve">
<linearGradient id="SVGID_1_" gradientUnits="userSpaceOnUse" x1="-83.2695" y1="-71.1958" x2="688.363" y2="964.3009" gradientTransform="matrix(1 0 0 -1 -247.6602 1222.04)">
	<stop  offset="0" style="stop-color:#C8BDFF"/>
	<stop  offset="0.1978" style="stop-color:#BAA6FF"/>
	<stop  offset="0.4535" style="stop-color:#6721FF"/>
	<stop  offset="0.9447" style="stop-color:#00CBFF"/>
</linearGradient>
<path fill="url(#SVGID_1_)" d="M65.28,36.144c11.356,21.684,14.138,48.649,13.22,66.87V270h-0.449l0.449,0.003
	c-0.354,52.755-0.018,152.759,0.181,211.441v0.007v0.005c0.025,7.605,0.049,14.518,0.067,20.543l0.001,0.031l-0.004,0.03
	c-0.741,6.092,0.031,15.062,4.709,22.19c4.649,7.086,13.212,12.439,28.255,11.251c9.624-0.76,16.623,2.089,21.141,6.76
	c4.51,4.661,6.498,11.084,6.211,17.387c-0.287,6.301-2.848,12.525-7.496,16.799c-4.662,4.284-11.385,6.57-19.903,5.045
	c-10.134-1.815-17.255-1.122-22.249,1.135c-4.975,2.248-7.9,6.077-9.6,10.684c-1.703,4.624-2.164,10.02-2.191,15.354
	c-0.014,2.663,0.081,5.3,0.18,7.81l0.025,0.66c0.09,2.264,0.174,4.417,0.174,6.366v204.497c0.391,58.286,0.022,174.243-0.15,228.433
	l-0.011,3.54c0.753,6.24-0.03,15.45-4.87,22.83c-4.875,7.43-13.813,12.91-29.169,11.7c-9.376-0.74-16.065,2.03-20.343,6.46
	c-4.288,4.43-6.207,10.57-5.93,16.64c0.276,6.08,2.746,12.04,7.175,16.11c4.416,4.061,10.818,6.27,19.05,4.8
	c10.239-1.84,17.542-1.17,22.722,1.21c5.2,2.38,8.194,6.45,9.87,11.25c1.67,4.79,2.035,10.33,1.992,15.7
	c-0.021,2.68-0.146,5.34-0.264,7.851l-0.004,0.069c-0.022,0.48-0.045,0.96-0.066,1.42V1592h-1v-410.5h-0.161
	c0-1.7,0.072-3.56,0.161-5.51V1175h0.047l0.02-0.44l0.005-0.09c0.118-2.51,0.242-5.149,0.263-7.81
	c0.043-5.34-0.324-10.73-1.938-15.36c-1.605-4.6-4.439-8.43-9.341-10.67c-4.922-2.26-11.994-2.95-22.129-1.14
	c-8.518,1.53-15.241-0.761-19.903-5.04c-4.649-4.28-7.211-10.5-7.497-16.8c-0.287-6.301,1.702-12.73,6.21-17.391
	c4.518-4.67,11.517-7.52,21.141-6.76c15.043,1.19,23.606-4.16,28.255-11.25c4.678-7.13,5.451-16.1,4.709-22.19l-0.003-0.029V1060
	l0.011-3.57c0.173-54.2,0.541-170.145,0.15-228.427L77.5,828H77V623.5c0-1.928-0.084-4.062-0.173-6.33l-0.026-0.657
	c-0.098-2.51-0.193-5.167-0.18-7.854c0.027-5.37,0.489-10.905,2.254-15.694c1.771-4.805,4.859-8.869,10.126-11.249
	c5.248-2.372,12.597-3.042,22.836-1.208c8.231,1.475,14.634-0.739,19.05-4.798c4.43-4.071,6.899-10.034,7.176-16.107
	c0.275-6.072-1.643-12.213-5.931-16.646c-4.278-4.423-10.968-7.198-20.344-6.458c-15.356,1.212-24.294-4.268-29.17-11.699
	c-4.839-7.376-5.622-16.588-4.87-22.829c-0.019-5.965-0.041-12.799-0.066-20.313v-0.128l-0.001-0.069v-0.003
	C77.483,422.778,77.146,322.764,77.5,270l0,0V103v-0.012v-0.013c0.914-18.113-1.856-44.89-13.105-66.368
	C58.773,25.875,51.045,16.484,40.62,10.146C30.2,3.812,17.05,0.507,0.545,1.998l-0.09-0.996C17.15-0.506,30.517,2.834,41.14,9.292
	C51.757,15.746,59.597,25.292,65.28,36.144z"/>
</svg>
